<?xml version="1.0" standalone="no"?><!DOCTYPE svg PUBLIC "-//W3C//DTD SVG 1.1//EN" "http://www.w3.org/Graphics/SVG/1.1/DTD/svg11.dtd"><svg t="1589951814721" class="icon" viewBox="0 0 1024 1024" version="1.1" xmlns="http://www.w3.org/2000/svg" p-id="2371" xmlns:xlink="http://www.w3.org/1999/xlink" width="200" height="200"><defs><style type="text/css"></style></defs><path d="M523.73504 319.29344h-204.8c-16.896 0-30.72-13.824-30.72-30.72s13.824-30.72 30.72-30.72h204.8c16.896 0 30.72 13.824 30.72 30.72s-13.824 30.72-30.72 30.72zM605.65504 452.41344h-286.72c-16.896 0-30.72-13.824-30.72-30.72s13.824-30.72 30.72-30.72h286.72c16.896 0 30.72 13.824 30.72 30.72s-13.824 30.72-30.72 30.72z" fill="#FFFFFF" p-id="2372"></path><path d="M512 512m-389.12 0a389.12 389.12 0 1 0 778.24 0 389.12 389.12 0 1 0-778.24 0Z" fill="#3889FF" p-id="2373"></path><path d="M550.76864 365.2608a27.14624 27.14624 0 0 1 38.35904 0l69.61152 69.61152a27.14624 27.14624 0 0 1 0 38.35904l-58.65472 58.65472 34.0992 34.0992 58.65472-58.65472c29.37856-29.37856 29.37856-77.17888 0-106.5472l-69.61152-69.61152c-29.37856-29.37856-77.17888-29.37856-106.5472 0l-58.65472 58.65472 34.0992 34.0992 58.64448-58.66496zM473.23136 658.7392a27.14624 27.14624 0 0 1-38.35904 0l-69.61152-69.61152a27.14624 27.14624 0 0 1 0-38.35904l58.65472-58.65472-34.0992-34.0992-58.65472 58.65472c-29.37856 29.37856-29.37856 77.17888 0 106.5472l69.61152 69.61152c29.37856 29.37856 77.17888 29.37856 106.5472 0l58.65472-58.65472-34.0992-34.0992-58.64448 58.66496zM641.0752 606.98624l-23.95136-23.95136-34.0992-34.0992-107.96032-107.97056-34.0992-34.0992-23.95136-23.95136a24.17664 24.17664 0 0 0-34.0992 0 24.17664 24.17664 0 0 0 0 34.0992l23.95136 23.95136 34.0992 34.0992 107.97056 107.97056 34.0992 34.0992 23.95136 23.95136a24.17664 24.17664 0 0 0 34.0992 0 24.18688 24.18688 0 0 0-0.01024-34.0992z" fill="#FFFFFF" p-id="2374"></path></svg>