<?xml version="1.0" standalone="no"?><!DOCTYPE svg PUBLIC "-//W3C//DTD SVG 1.1//EN" "http://www.w3.org/Graphics/SVG/1.1/DTD/svg11.dtd"><svg t="1593398673953" class="icon" viewBox="0 0 1024 1024" version="1.1" xmlns="http://www.w3.org/2000/svg" p-id="2790" xmlns:xlink="http://www.w3.org/1999/xlink" width="200" height="200"><defs><style type="text/css"></style></defs><path d="M523.73504 319.29344h-204.8c-16.896 0-30.72-13.824-30.72-30.72s13.824-30.72 30.72-30.72h204.8c16.896 0 30.72 13.824 30.72 30.72s-13.824 30.72-30.72 30.72zM605.65504 452.41344h-286.72c-16.896 0-30.72-13.824-30.72-30.72s13.824-30.72 30.72-30.72h286.72c16.896 0 30.72 13.824 30.72 30.72s-13.824 30.72-30.72 30.72z" fill="#FFFFFF" p-id="2791"></path><path d="M601.31328 849.1008H422.06208c-136.41728 0-248.03328-111.49312-248.03328-247.76704V422.27712c0-136.27392 111.616-247.76704 248.03328-247.76704h179.2512c136.41728 0 248.02304 111.49312 248.02304 247.76704v179.05664c0.01024 136.27392-111.60576 247.76704-248.02304 247.76704z" fill="#3889FF" p-id="2792"></path><path d="M325.85728 604.9792h371.6608a25.1904 25.1904 0 0 0 18.62656-7.82336c5.19168-5.2224 7.7824-11.6224 7.7824-18.96448 0-7.35232-2.59072-13.75232-7.7824-18.96448-5.19168-5.21216-11.3152-7.82336-18.62656-7.82336h-2.3552c-4.95616-36.03456-19.56864-67.80928-43.38688-95.54944-23.81824-27.74016-53.06368-46.46912-87.72608-56.66816v-0.47104c0.70656-3.08224 0.94208-5.45792 0.94208-7.1168 0-14.94016-5.19168-27.50464-15.5648-37.69344-10.38336-10.1888-22.87616-15.4112-37.7344-15.4112s-27.36128 5.2224-37.49888 15.4112c-10.1376 10.19904-15.32928 22.76352-15.32928 37.69344 0 1.65888 0.23552 4.03456 0.47104 7.58784-34.6624 10.1888-63.90784 28.928-87.72608 56.66816-23.81824 27.50464-38.20544 59.50464-43.38688 95.54944h-2.3552c-3.5328 0-6.84032 0.7168-10.1376 2.14016a26.84928 26.84928 0 0 0-8.48896 5.6832c-2.3552 2.37568-4.23936 5.21216-5.65248 8.52992a26.97216 26.97216 0 0 0-2.12992 10.67008c0 7.35232 2.59072 13.5168 7.7824 18.72896a25.1904 25.1904 0 0 0 18.61632 7.82336zM511.6928 365.04576a25.1904 25.1904 0 0 1 18.62656 7.82336c5.19168 5.21216 7.7824 11.37664 7.7824 18.72896v1.42336l-0.47104 0.47104a125.44 125.44 0 0 0-13.2096-1.42336c-4.47488-0.23552-8.72448-0.47104-12.72832-0.47104-4.01408 0-8.25344 0.23552-12.73856 0.47104-4.47488 0.23552-8.72448 0.70656-13.2096 1.42336l-0.47104-0.47104v-1.42336c0-7.35232 2.59072-13.5168 7.7824-18.72896 5.19168-5.2224 11.3152-7.82336 18.6368-7.82336zM399.90272 507.77088c8.48896-13.98784 19.33312-25.83552 32.3072-36.03456 12.97408-10.1888 27.58656-17.3056 43.6224-21.8112 0.70656-0.23552 1.1776-0.47104 1.88416-0.47104 0.94208-0.23552 1.64864-0.47104 2.36544-0.47104 3.77856 0 7.07584 1.42336 9.66656 4.02432 2.60096 2.6112 4.00384 5.92896 4.00384 9.71776 0 2.14016-0.47104 4.27008-1.41312 6.16448a13.1072 13.1072 0 0 1-4.01408 4.74112 12.3904 12.3904 0 0 1-5.4272 2.37568c-8.48896 2.6112-16.50688 5.92896-23.81824 10.1888a105.5744 105.5744 0 0 0-20.28544 15.17568 110.14144 110.14144 0 0 0-15.80032 19.21024 13.50656 13.50656 0 0 1-2.82624 4.27008 13.25056 13.25056 0 0 1-4.23936 2.84672c-1.64864 0.7168-3.29728 0.95232-5.19168 0.95232-3.77856 0-6.84032-1.18784-9.43104-3.79904-2.59072-2.60096-3.76832-5.69344-3.76832-9.48224 0.01024-2.85696 0.7168-5.46816 2.36544-7.59808z m297.61536 123.76064H325.85728a25.1904 25.1904 0 0 0-18.62656 7.82336 26.0096 26.0096 0 0 0-7.7824 18.96448c0 7.34208 2.59072 13.75232 7.7824 18.96448 5.19168 5.21216 11.3152 7.82336 18.62656 7.82336h371.6608c7.31136 0 13.44512-2.6112 18.62656-7.82336a26.0096 26.0096 0 0 0 7.7824-18.96448c0-7.35232-2.59072-13.75232-7.7824-18.96448-5.19168-5.2224-11.3152-7.82336-18.62656-7.82336z m0 0" fill="#FFFFFF" p-id="2793"></path></svg>