<?xml version="1.0" standalone="no"?><!DOCTYPE svg PUBLIC "-//W3C//DTD SVG 1.1//EN" "http://www.w3.org/Graphics/SVG/1.1/DTD/svg11.dtd"><svg t="1592192459185" class="icon" viewBox="0 0 1024 1024" version="1.1" xmlns="http://www.w3.org/2000/svg" p-id="2228" xmlns:xlink="http://www.w3.org/1999/xlink" width="200" height="200"><defs><style type="text/css"></style></defs><path d="M512 512m-389.12 0a389.12 389.12 0 1 0 778.24 0 389.12 389.12 0 1 0-778.24 0Z" fill="#3889FF" p-id="2229"></path><path d="M492.78976 401.11104c-73.68704 10.25024-126.89408 75.74528-121.84576 149.97504 5.05856 74.21952 66.6624 131.90144 141.056 132.07552a141.68064 141.68064 0 0 0 141.66016-141.69088 27.50464 27.50464 0 1 1 55.00928 0c0 108.62592-88.04352 196.66944-196.66944 196.66944S315.33056 650.11712 315.33056 541.4912c0-102.84032 78.92992-187.2384 179.47648-195.93216l26.7776 26.75712-28.79488 28.80512v-0.01024z m0 0" fill="#FFFFFF" p-id="2230"></path><path d="M482.07872 332.81024a27.50464 27.50464 0 0 1 38.90176-38.90176l58.94144 58.95168a27.50464 27.50464 0 0 1 0 38.90176l-58.94144 58.94144a27.50464 27.50464 0 0 1-38.90176-38.90176l39.50592-39.50592-39.50592-39.48544z m0 0" fill="#FFFFFF" p-id="2231"></path></svg>