<?xml version="1.0" standalone="no"?><!DOCTYPE svg PUBLIC "-//W3C//DTD SVG 1.1//EN" "http://www.w3.org/Graphics/SVG/1.1/DTD/svg11.dtd"><svg t="1592206637617" class="icon" viewBox="0 0 1024 1024" version="1.1" xmlns="http://www.w3.org/2000/svg" p-id="2241" xmlns:xlink="http://www.w3.org/1999/xlink" width="200" height="200"><defs><style type="text/css"></style></defs><path d="M523.73504 319.29344h-204.8c-16.896 0-30.72-13.824-30.72-30.72s13.824-30.72 30.72-30.72h204.8c16.896 0 30.72 13.824 30.72 30.72s-13.824 30.72-30.72 30.72zM605.65504 452.41344h-286.72c-16.896 0-30.72-13.824-30.72-30.72s13.824-30.72 30.72-30.72h286.72c16.896 0 30.72 13.824 30.72 30.72s-13.824 30.72-30.72 30.72z" fill="#FFFFFF" p-id="2242"></path><path d="M512 512m-389.12 0a389.12 389.12 0 1 0 778.24 0 389.12 389.12 0 1 0-778.24 0Z" fill="#3889FF" p-id="2243"></path><path d="M334.68416 583.63904a188.19072 188.19072 0 0 1-12.12416-66.05824c0-80.26112 50.24768-148.84864 120.87296-176.40448a81.3056 81.3056 0 0 1-11.66336-61.2352C332.67712 313.48736 261.12 407.30624 261.12 517.5808c0 33.7408 6.73792 65.91488 18.86208 95.32416a81.89952 81.89952 0 0 1 54.70208-29.26592zM580.56704 341.18656c70.62528 27.5456 120.87296 96.13312 120.87296 176.39424 0 23.25504-4.41344 45.45536-12.11392 66.05824a81.87904 81.87904 0 0 1 54.69184 29.26592 249.344 249.344 0 0 0 18.86208-95.32416c0-110.27456-71.54688-204.09344-170.63936-237.63968 1.09568 5.34528 1.67936 10.88512 1.67936 16.55808 0 16.4864-4.93568 31.81568-13.35296 44.68736zM601.4464 684.50304c-26.66496 14.34624-57.10848 22.51776-89.4464 22.51776s-62.79168-8.18176-89.4464-22.51776a82.05312 82.05312 0 0 1-36.23936 50.06336c36.98688 21.51424 79.90272 33.8944 125.68576 33.8944s88.69888-12.3904 125.68576-33.8944a82.1248 82.1248 0 0 1-36.23936-50.06336z" fill="#FFFFFF" p-id="2244"></path><path d="M512 378.4192a81.85856 81.85856 0 0 0 68.56704-37.23264A188.24192 188.24192 0 0 0 512 328.15104c-24.19712 0-47.26784 4.73088-68.56704 13.03552A81.87904 81.87904 0 0 0 512 378.4192zM592.24064 279.94112c-7.68-37.26336-40.73472-65.36192-80.2304-65.36192-39.49568 0-72.5504 28.09856-80.2304 65.36192a249.5488 249.5488 0 0 1 80.2304-13.23008 249.32352 249.32352 0 0 1 80.2304 13.23008z" fill="#FFFFFF" p-id="2245"></path><path d="M443.43296 341.18656A188.24192 188.24192 0 0 1 512 328.15104c24.20736 0 47.27808 4.73088 68.56704 13.03552a81.36704 81.36704 0 0 0 11.66336-61.24544 249.83552 249.83552 0 0 0-160.47104-0.01024A82.5856 82.5856 0 0 0 430.08 296.4992c0 16.4864 4.93568 31.81568 13.35296 44.68736zM512 276.0192c11.29472 0 20.48 9.18528 20.48 20.48s-9.18528 20.48-20.48 20.48-20.48-9.18528-20.48-20.48 9.18528-20.48 20.48-20.48zM279.98208 612.9152a81.5104 81.5104 0 0 0-18.86208 52.224c0 45.16864 36.75136 81.92 81.92 81.92a81.34656 81.34656 0 0 0 43.27424-12.4928 252.3136 252.3136 0 0 1-106.33216-121.6512zM343.04 583.2192c-2.82624 0-5.61152 0.14336-8.35584 0.41984a190.35136 190.35136 0 0 0 87.86944 100.864 81.664 81.664 0 0 0 2.4064-19.36384c0-45.16864-36.75136-81.92-81.92-81.92z" fill="#FFFFFF" p-id="2246"></path><path d="M422.5536 684.50304a190.3104 190.3104 0 0 1-87.86944-100.864 81.87904 81.87904 0 0 0-54.69184 29.26592 252.416 252.416 0 0 0 106.32192 121.66144 82.1248 82.1248 0 0 0 36.23936-50.06336z m-79.5136 1.11616c-11.29472 0-20.48-9.18528-20.48-20.48s9.18528-20.48 20.48-20.48 20.48 9.18528 20.48 20.48-9.18528 20.48-20.48 20.48zM637.68576 734.5664a81.34656 81.34656 0 0 0 43.27424 12.4928c45.16864 0 81.92-36.75136 81.92-81.92a81.55136 81.55136 0 0 0-18.86208-52.224 252.3136 252.3136 0 0 1-106.33216 121.6512zM599.04 665.1392c0 6.67648 0.89088 13.14816 2.4064 19.36384a190.3104 190.3104 0 0 0 87.86944-100.864 83.6608 83.6608 0 0 0-8.36608-0.41984c-45.1584 0-81.90976 36.75136-81.90976 81.92z" fill="#FFFFFF" p-id="2247"></path><path d="M744.01792 612.9152a81.83808 81.83808 0 0 0-54.69184-29.26592 190.35136 190.35136 0 0 1-87.86944 100.864 82.05312 82.05312 0 0 0 36.23936 50.06336 252.416 252.416 0 0 0 106.32192-121.66144z m-83.53792 52.224c0-11.29472 9.18528-20.48 20.48-20.48s20.48 9.18528 20.48 20.48-9.18528 20.48-20.48 20.48-20.48-9.18528-20.48-20.48z" fill="#FFFFFF" p-id="2248"></path></svg>