<?xml version="1.0" standalone="no"?><!DOCTYPE svg PUBLIC "-//W3C//DTD SVG 1.1//EN" "http://www.w3.org/Graphics/SVG/1.1/DTD/svg11.dtd"><svg t="1589164285673" class="icon" viewBox="0 0 1024 1024" version="1.1" xmlns="http://www.w3.org/2000/svg" p-id="2368" xmlns:xlink="http://www.w3.org/1999/xlink" width="200" height="200"><defs><style type="text/css"></style></defs><path d="M523.73504 319.29344h-204.8c-16.896 0-30.72-13.824-30.72-30.72s13.824-30.72 30.72-30.72h204.8c16.896 0 30.72 13.824 30.72 30.72s-13.824 30.72-30.72 30.72zM605.65504 452.41344h-286.72c-16.896 0-30.72-13.824-30.72-30.72s13.824-30.72 30.72-30.72h286.72c16.896 0 30.72 13.824 30.72 30.72s-13.824 30.72-30.72 30.72z" fill="#FFFFFF" p-id="2369"></path><path d="M511.56992 176.73216c-244.61312 0-335.14496 214.02624-335.14496 334.04928s87.00928 336.2304 328.01792 336.2304c0 0 59.904 1.04448 59.904-52.992 0-54.04672-26.94144-36.78208-26.94144-75.66336a51.52768 51.52768 0 0 1 39.8848-56.2176c48.82432 4.0448 97.97632 0.01024 145.48992-11.93984a194.21184 194.21184 0 0 0 123.91424-176.03584C831.27296 301.9776 684.36992 171.61216 511.56992 176.73216zM307.26144 511.87712a58.40896 58.40896 0 1 1 58.18368-58.38848 58.28608 58.28608 0 0 1-58.18368 58.38848z m109.75232-144.4864a58.39872 58.39872 0 1 1 58.19392-58.38848 58.29632 58.29632 0 0 1-58.18368 58.43968v-0.0512z m186.63424 0a58.40896 58.40896 0 1 1 58.18368-58.38848 58.30656 58.30656 0 0 1-58.10176 58.43968l-0.08192-0.0512z m110.80704 144.4864a58.40896 58.40896 0 1 1 58.18368-58.38848 58.3168 58.3168 0 0 1-58.18368 58.38848z m0 0" fill="#3889FF" p-id="2370"></path></svg>