<?xml version="1.0" standalone="no"?><!DOCTYPE svg PUBLIC "-//W3C//DTD SVG 1.1//EN" "http://www.w3.org/Graphics/SVG/1.1/DTD/svg11.dtd"><svg t="1589951764368" class="icon" viewBox="0 0 1024 1024" version="1.1" xmlns="http://www.w3.org/2000/svg" p-id="2228" xmlns:xlink="http://www.w3.org/1999/xlink" width="200" height="200"><defs><style type="text/css"></style></defs><path d="M523.73504 319.29344h-204.8c-16.896 0-30.72-13.824-30.72-30.72s13.824-30.72 30.72-30.72h204.8c16.896 0 30.72 13.824 30.72 30.72s-13.824 30.72-30.72 30.72zM605.65504 452.41344h-286.72c-16.896 0-30.72-13.824-30.72-30.72s13.824-30.72 30.72-30.72h286.72c16.896 0 30.72 13.824 30.72 30.72s-13.824 30.72-30.72 30.72z" fill="#FFFFFF" p-id="2229"></path><path d="M512 512m-389.12 0a389.12 389.12 0 1 0 778.24 0 389.12 389.12 0 1 0-778.24 0Z" fill="#3889FF" p-id="2230" data-spm-anchor-id="a313x.7781069.0.i6" class="selected"></path><path d="M481.55648 640.27648c-90.33728 0-163.84-73.50272-163.84-163.84s73.50272-163.84 163.84-163.84 163.84 73.50272 163.84 163.84-73.50272 163.84-163.84 163.84z m0-266.24c-56.46336 0-102.4 45.93664-102.4 102.4s45.93664 102.4 102.4 102.4 102.4-45.93664 102.4-102.4-45.93664-102.4-102.4-102.4z" fill="#FFFFFF" p-id="2231" data-spm-anchor-id="a313x.7781069.0.i5" class="selected"></path><path d="M653.8752 702.44352l-101.376-101.376a30.81216 30.81216 0 0 1 0-43.44832 30.81216 30.81216 0 0 1 43.44832 0l101.376 101.36576a30.81216 30.81216 0 0 1 0 43.44832 30.80192 30.80192 0 0 1-43.44832 0.01024z" fill="#FFFFFF" p-id="2232" data-spm-anchor-id="a313x.7781069.0.i4" class="selected"></path></svg>