<?xml version="1.0" standalone="no"?><!DOCTYPE svg PUBLIC "-//W3C//DTD SVG 1.1//EN" "http://www.w3.org/Graphics/SVG/1.1/DTD/svg11.dtd"><svg t="1593398483616" class="icon" viewBox="0 0 1024 1024" version="1.1" xmlns="http://www.w3.org/2000/svg" p-id="2650" xmlns:xlink="http://www.w3.org/1999/xlink" width="200" height="200"><defs><style type="text/css"></style></defs><path d="M523.73504 319.29344h-204.8c-16.896 0-30.72-13.824-30.72-30.72s13.824-30.72 30.72-30.72h204.8c16.896 0 30.72 13.824 30.72 30.72s-13.824 30.72-30.72 30.72zM605.65504 452.41344h-286.72c-16.896 0-30.72-13.824-30.72-30.72s13.824-30.72 30.72-30.72h286.72c16.896 0 30.72 13.824 30.72 30.72s-13.824 30.72-30.72 30.72z" fill="#FFFFFF" p-id="2651"></path><path d="M579.74784 460.50304a219.06432 219.06432 0 0 1 85.82144-17.38752c2.94912 0 5.87776 0.13312 8.82688 0.13312 13.94688-35.29728 17.52064-76.97408 10.496-117.51424-16.24064-92.95872-103.9872-155.10528-196.1984-138.73152-92.08832 16.37376-169.85088 87.98208-153.47712 180.93056 3.45088 20.0704 13.17888 51.4048 24.68864 74.0352L192.59392 683.24352c-6.144 8.82688-9.728 24.82176-7.80288 35.6864l7.28064 41.28768c-6.912-39.76192 1.91488 14.32576 7.28064 14.19264l55.12192 0.768c10.60864-1.91488 23.92064-10.86464 29.7984-19.95776l66.11968-103.43424 0.63488-0.64512 57.8048 4.59776 77.24032-121.07776c0.256 0 0.52224 0.13312 0.768 0.13312a229.62176 229.62176 0 0 1 22.8864-26.86976 216.4736 216.4736 0 0 1 70.02112-47.42144zM228.79232 708.68992l-8.18176 3.45088 0.90112-8.96 160.256-232.59136 9.59488 8.96-162.57024 229.14048z m243.52768-427.96032c25.32352-36.44416 75.19232-45.52704 111.2576-19.8144a81.3568 81.3568 0 0 1 19.69152 112.51712c-25.32352 36.44416-51.15904 10.74176-87.35744-14.82752-36.0448-25.7024-68.9152-41.30816-43.59168-77.8752z m0 0" fill="#3889FF" p-id="2652"></path><path d="M663.3984 487.87456c-97.0752 0-175.72864 78.63296-175.72864 175.69792 0 97.05472 78.6432 175.6672 175.72864 175.6672s175.72864-78.63296 175.72864-175.6672c0-97.06496-78.66368-175.69792-175.72864-175.69792z m101.55008 247.79776c0 26.22464-50.25792 32.23552-97.45408 32.23552s-98.0992-6.01088-98.0992-32.23552v-7.2704c0-19.31264 34.78528-38.88128 64.33792-49.48992 2.17088-0.768 12.41088-6.4 6.64576-21.3504-14.70464-14.96064-25.7024-39.26016-25.7024-63.16032 0-36.56704 24.17664-55.74656 52.57216-55.74656 28.27264 0 52.69504 19.16928 52.69504 55.74656 0 23.78752-11.13088 47.95392-25.7024 63.04768h0.13312c-5.632 16.9984 3.31776 21.08416 4.73088 21.48352 31.06816 10.22976 65.9968 29.67552 65.9968 49.48992l-0.1536 7.24992z m0 0" fill="#3889FF" p-id="2653"></path></svg>