<?xml version="1.0" standalone="no"?><!DOCTYPE svg PUBLIC "-//W3C//DTD SVG 1.1//EN" "http://www.w3.org/Graphics/SVG/1.1/DTD/svg11.dtd"><svg t="1593322505513" class="icon" viewBox="0 0 1024 1024" version="1.1" xmlns="http://www.w3.org/2000/svg" p-id="2228" xmlns:xlink="http://www.w3.org/1999/xlink" width="200" height="200"><defs><style type="text/css"></style></defs><path d="M523.73504 319.29344h-204.8c-16.896 0-30.72-13.824-30.72-30.72s13.824-30.72 30.72-30.72h204.8c16.896 0 30.72 13.824 30.72 30.72s-13.824 30.72-30.72 30.72zM605.65504 452.41344h-286.72c-16.896 0-30.72-13.824-30.72-30.72s13.824-30.72 30.72-30.72h286.72c16.896 0 30.72 13.824 30.72 30.72s-13.824 30.72-30.72 30.72z" fill="#FFFFFF" p-id="2229"></path><path d="M512 512m-389.12 0a389.12 389.12 0 1 0 778.24 0 389.12 389.12 0 1 0-778.24 0Z" fill="#3889FF" p-id="2230"></path><path d="M462.98112 325.70368a316.09856 316.09856 0 0 1 97.55648 0c22.77376 4.75136 45.50656 8.5504 66.8672 14.71488 15.89248 4.21888 28.59008 16.72192 33.64864 33.03424a2323.57888 2323.57888 0 0 0 29.12256 80.97792c1.792 4.5568 7.22944 11.17184 10.45504 10.72128 18.0224-3.19488 35.20512 9.27744 38.62528 28.01664 1.14688 4.864 1.14688 9.8816 0 14.75584l-25.88672 7.33184c1.59744 9.43104 2.6624 18.97472 3.15392 28.50816v131.61472a38.37952 38.37952 0 0 1-7.72096 21.8624 203.73504 203.73504 0 0 1-72.76544 1.44384c-16.80384-11.17184-6.3488-29.952-11.78624-45.12768H403.17952c-4.33152 16.11776-6.84032 43.22304-11.8272 45.12768a206.56128 206.56128 0 0 1-74.58816 0 43.7248 43.7248 0 0 1-8.17152-25.20064c-1.37216-19.00544-1.37216-37.02784-1.37216-55.58272 0-34.43712 0-68.88448 1.37216-103.59808l-24.10496-6.61504a28.37504 28.37504 0 0 1 0-11.6736c6.84032-19.01568 15.89248-33.72032 39.31136-31.54944 2.73408 0 7.9872-5.70368 9.58464-10.00448a668.91776 668.91776 0 0 0 22.7328-64.86016c8.74496-32.54272 35.96288-55.9616 68.20864-58.69568 12.50304-2.3552 25.46688-4.03456 37.98016-6.15424l0.67584 0.95232z m-100.44416 146.82112a688.1792 688.1792 0 0 0 297.41056 0c-8.40704-26.38848-16.80384-49.92-22.7328-73.6768-3.60448-18.62656-19.49696-31.92832-37.75488-31.54944-47.06304-2.17088-94.3616-3.79904-141.42464-4.29056a193.76128 193.76128 0 0 0-45.4656 7.33184 25.94816 25.94816 0 0 0-16.61952 11.89888c-12.72832 28.74368-22.272 58.42944-33.41312 90.28608z m19.3536 112.15872c8.1408 0.41984 16.27136-0.04096 24.33024-1.44384a22.8864 22.8864 0 0 0 14.7456-11.63264c1.14688-3.57376-4.06528-12.35968-8.63232-14.52032a517.24288 517.24288 0 0 0-56.832-23.7568c-9.54368-3.30752-20.45952-2.58048-22.7328 11.40736-4.5568 20.6848 0 32.08192 14.75584 35.4304 11.59168 2.3552 22.77376 2.85696 35.47136 4.03456l-1.13664 0.4608 0.03072 0.02048z m262.13376 0a314.5216 314.5216 0 0 0 35.7376-4.79232c17.02912-4.03456 13.38368-18.51392 12.92288-31.09888-0.4608-12.62592-6.84032-18.55488-16.11776-15.69792a483.84 483.84 0 0 0-68.23936 27.10528c-9.99424 4.94592-6.3488 18.7392 5.0176 21.37088 10.14784 1.59744 20.40832 2.54976 30.67904 2.85696v0.256z m0 0" fill="#FFFFFF" p-id="2231"></path></svg>